<?xml version="1.0" encoding="utf-8"?>
<!-- Generator: Adobe Illustrator 27.8.0, SVG Export Plug-In . SVG Version: 6.00 Build 0)  -->
<svg version="1.1" id="Layer_1" xmlns="http://www.w3.org/2000/svg" xmlns:xlink="http://www.w3.org/1999/xlink" x="0px" y="0px"
	 viewBox="0 0 1080 994" style="enable-background:new 0 0 1080 994;" xml:space="preserve">
<style type="text/css">
	.st0{fill:#040608;}
	.st1{font-family:'OpenSans-Semibold';}
	.st2{font-size:108px;}
</style>
<path class="st0" d="M379.4,308.1c-0.9,1.1-1.8,2.3-3.1,3.6c-2.6,1-4.7,1.8-7.1,2.6c5.7,7.2,5.6,7.5,1.3,15.4
	c-0.6,1.2-0.7,2.9-0.4,4.3c1.3,6,6,9.3,10.8,11.9c7.3,4,15,7.7,22.9,10.3c13.6,4.4,26.7,9.9,39.1,17c11.7,6.6,23.4,13.1,34.9,20.1
	c16.9,10.4,31.4,23.6,43.6,39.2c10.3,13.1,18.4,27.5,24.6,42.9c8.7,21.5,12.3,44.2,13.8,67.1c1,15,1.2,30.1,1.5,45.1
	c0.2,13.2,0.1,26.5,0.1,39.7c0,1.3,0,2.5,0,4.1c-15.3,0-30.4,0-45.6,0c0-6.9-0.1-13.8,0-20.6c0.1-8.6,0.4-17.2,0.7-25.8
	c0.7-21.8-2-43.3-7.7-64.4c-4-14.9-10-29-17.7-42.4c-9.2-15.9-20.2-30.5-33.8-42.8c-9.4-8.5-19.5-16.4-30.1-23.3
	c-10.1-6.5-20.7-12.9-32-16.3c-24-7.3-48.3-7-71.4,4.2c-18.8,9.1-36.2,20.4-51.8,34.2c-3.5,3.1-6.6,6.7-10.3,10.2
	c-0.5,0.4-0.7,0.5-0.8,0.7c0,0,0-0.1-0.2,0c-0.3,0.3-0.4,0.5-0.5,0.7c0,0,0-0.1-0.2,0c-0.3,0.3-0.4,0.5-0.5,0.7c0,0,0-0.1-0.2,0
	c-3.3,3.7-6.4,7.4-9.6,11.2c-5.4,8.1-11.2,15.8-15.5,24.2c-8.1,15.4-11.8,32.3-14,49.5c-1.5,11.2-2.7,22.5-3.7,33.8
	c-1.2,13.8-3,27.7-3.1,41.5c-0.3,61.8-0.1,123.6-0.1,185.5c0,1.2,0,2.5,0,3.9c39.1,0,77.8,0,116.7,0c0-1.7,0-3.2,0-4.7
	c0-24.9,0-49.9,0-75.3c1.6,0,3,0,4.9,0c13.5,0,26.3,0,39.4,0c0,27.2,0,53.8,0,80.6c16.4,0,32.6,0,48.9,0c0-1.7,0-3.2,0-4.7
	c0-25.2,0-50.3,0-75.9c1.7,0,3,0,5,0c13.6,0,26.5,0,40,0c0,27.2,0,54,0,80.6c16.4,0,32.4,0,48.5,0c0-1.7,0-3.2,0-4.7
	c0-23.9,0.2-47.8,0-71.7c0-3.5,0.9-4.9,5-4.3c13.6,0,26.5,0,39.9,0c0,1.7,0,2.9,0,4.1c0,20.1,0,40.3,0,60.4
	c0,20.9,0.1,41.9,0.1,62.8c0,1.1-0.1,2.1-0.5,3.6c-1.8,0.3-3.1,0.4-4.5,0.4c-127.5,0-255.1,0-382.6,0c-1.4,0-2.8,0.4-4.3,0.6
	c-0.3,0-0.6,0-1.2,0c-0.2-0.3-0.1-0.6,0.1-1.4c0.2-1.6,0.3-2.8,0.3-3.9c0-90,0-179.9,0-269.9c0-0.9,0-1.8-0.1-2.8
	c0-30.5,3.3-60.7,12.6-89.8c5.7-17.7,14.7-33.9,26.2-48.5c6.3-8.1,13.6-15.4,20.5-23.1c0.7-0.8,1.8-1.4,3-2.4c0.7-0.6,1-0.9,1.4-1.2
	c0,0,0,0.1,0.1,0c0.5-0.5,0.9-0.9,1.2-1.3c0,0,0,0,0.1-0.1c0.7-0.5,1.3-1,1.9-1.4c0,0,0,0.1,0.2,0c0.3-0.3,0.4-0.5,0.5-0.7
	c0,0,0,0.1,0.2,0.1c1.3-0.8,2.4-1.6,3.5-2.4c15.3-10.9,32-19.4,48.7-27.6c10.3-5.1,20.9-9.5,31.3-14.3c7.8-3.6,15.6-7.3,23.1-11.4
	c4-2.1,7.4-5.2,11.1-7.9c2.4-3.6,3.2-6.9,0.2-11c-3.2-4.4-1.3-8.7,2.9-12.6c-6.4-2.8-11.7-6.4-10.4-14.3c1.1-6.5,4.8-11.5,10.3-15.1
	c-5.5-6.7-5.3-10.4,0.9-13.9c-0.9-0.8-1.7-1.6-2.6-2.3c-4.7-3.9-4.6-9.4,0.3-13c2-1.4,2.7-3,2.4-5.6c-0.3-2.6,0.4-5.4,0.5-8.1
	c0-1.1-0.3-2.8-1.1-3.3c-12.2-7.1-13.4-25.2-2.1-33.5c0.4-0.3,0.8-0.8,1.6-1.4c3.8-1.1,7.2-2,10.5-2.9c0,0.5,0.1,1.3-0.2,1.5
	c-1.2,0.9-2.5,1.7-4.2,2.6c-5.8,3.8-8.1,9-7.5,15.2c0.6,6.5,4.3,11.3,10.2,14.1c5.5,2.6,10.9,1.8,16.1-1.3c0.6-0.4,1.9-2.2,2,0.5
	c-2.8,3.8-6.5,6-11.5,7.3c-2.3,0.3-4,0.5-5.2,0.7c-0.2,3.2-0.2,6-0.5,8.8c-0.3,2.6,0,4.5,2.5,6.1c1.5,0.9,2.5,2.8,3.7,4.5
	c0.1,0.4,0.3,0.6,0.4,1c0,1.1,0.1,2-0.1,3.1c-1.6,2-3.1,3.8-4.5,5.6c4.3,4.5,4.6,5.3,4,11.1c-1.5,1.4-2.8,2.6-4.3,4
	c1,0.8,2.2,1.8,3.4,2.6c4.1,2.8,7.3,6.3,7.7,11.6C380,302.4,379.5,305.2,379.4,308.1z"/>
<path class="st0" d="M889.9,847.1c0-16.9,0-33.7,0-50.8c1.5-0.1,2.8-0.2,4.8-0.2c16.1,0,31.6,0,47.3,0c0.1-1.8,0.3-3.3,0.5-4.8
	c0-0.1-0.1,0-0.3,0c-0.1,0.1-0.3-0.1-0.3-0.1c0-1.4,0.1-2.8,0.1-4.1c0-214.1,0-428.1,0-642.2c0-1.2,0-2.3,0.4-3.7
	c0.7-0.3,1.1-0.3,1.5-0.4c0-0.1,0-0.3,0-0.4c-0.5-0.1-1-0.1-1.5-0.2c1.3-0.2,2.7-0.4,4.7-0.6c13.5,0,26.3,0,39.5,0
	c0,1.8,0,3.2,0,4.5c0,231.5,0,463,0,694.5c0,1.5,0.1,3,0.1,4.5c0,0.3-0.1,0.5-0.3,1.1c-0.1,0.9,0,1.6,0.1,2.2c0,0.3,0,0.6,0.1,1.1
	c-0.2,0.2-0.5,0.2-1.3,0c-1.4-0.3-2.5-0.5-3.5-0.5C951.2,847.1,920.6,847.1,889.9,847.1 M946.4,140.6
	C946.4,140.6,946.3,140.7,946.4,140.6z"/>
<path class="st0" d="M129.9,843.2c-0.1,1.2-0.2,2.4-0.7,3.8c-42.8,0.2-85.1,0.2-127.8,0.2c0-17.2,0-33.9,0.2-50.8
	c1.6-0.2,2.9-0.3,4.6-0.4c26.4,0,52.5,0,78.8,0c0-1.8,0-3.3,0-5.1c0-9.5,0-18.6,0-28c-1.8,0-3,0-4.3,0c-25.2,0-50.3,0-75.5,0
	c-1.3,0-2.5-0.1-3.8-0.5c0-14.8,0-29.3-0.1-43.7c0-1.2-0.4-2.4-0.7-3.5c0-0.7,0-1.5,0-2.5c1.6-0.6,3.3-0.9,5.6-1.1
	c2.1,0,3.6,0.1,5.1,0.1c38.1,0,76.2,0,114.3-0.1c3.4,0,4.2,1,4.2,4.2c-0.1,41.1-0.1,82.2-0.1,123.3
	C129.7,840.4,129.8,841.8,129.9,843.2z"/>
<path class="st0" d="M832.9,847.8c-0.2-4.1-0.2-8.1-0.2-12.6c1.7,0,3,0,4.9,0c10.5,0,20.3,0,30.3,0c0-2,0-3.5,0-4.9
	c0-1.5,0-2.9,0-4.7c-11.7,0-23.1,0-34.9,0c0-9.9,0-19.5,0-29c1.3-0.2,2.7-0.3,4.7-0.5c15,0,29.5,0,44.2,0c0,3.4,0,5.8,0,8.1
	c0,1.3,0,2.5,0,4.4c-9.9,0-19.6,0-29.9,0c-2.1,0-3.5,0-5,0c0,2.9,0,5.4,0,8.3c11.7,0,23.2,0,35,0c0,8.8,0,17.3,0,25.7
	c0,1.6-0.1,3.1-0.1,5c-0.3,0.3-0.6,0.3-1.3,0c-0.7-0.4-1-0.5-1.3-0.5c-14.4,0-28.7,0-43.1,0c-0.7,0-1.3,0.5-2,0.8
	C833.7,847.8,833.4,847.8,832.9,847.8z"/>
<path class="st0" d="M1030.6,847.8c-0.3-1.8-0.4-3.7-0.4-5.5c0-232.6,0-465.2,0-697.8c0-1.5,0-3,0-4.9c1.6,0,3,0,4.8,0.1
	c0.6,0.2,0.7,0.2,0.4,0.4c-1.7,0.2-3,0.4-4.2,0.5c0,235.7,0,471,0,706.6c14.7,0,29,0,43.4,0c0,0,0,0.3,0,0.5
	C1059.9,847.8,1045.4,847.8,1030.6,847.8z"/>
<path class="st0" d="M169.6,847.8c1.1-0.2,2.5-0.6,3.9-0.6c127.5,0,255.1,0,382.6,0c1.4,0,2.8,0,4.5,0c0.3,0.1,0.3,0.2,0.4,0.5
	C430.7,847.8,300.3,847.8,169.6,847.8z"/>
<path class="st0" d="M0.7,797c0-0.3,0.3-0.5,0.5-0.5c0.2,16.7,0.2,33.4,0.2,50.6c42.7,0,85,0,127.7,0c0.3,0,0.3,0.3,0.3,0.5
	c-42.8,0.2-85.6,0.2-128.6,0.2C0.7,831,0.7,814.2,0.7,797z"/>
<path class="st0" d="M722.9,847.2c0,0,0,0.3-0.1,0.5c-39.2,0.1-78.4,0.1-117.9,0.1c-0.3-0.1-0.3-0.2,0.1-0.5
	c6-0.2,11.6-0.1,17.2-0.1C655.8,847.2,689.4,847.2,722.9,847.2z"/>
<path class="st0" d="M889.9,847.3c30.7-0.2,61.3-0.2,92-0.2c1,0,2,0.2,3.3,0.5c-31.4,0.2-62.9,0.2-94.8,0.2
	C890,847.8,889.9,847.5,889.9,847.3z"/>
<path class="st0" d="M763.2,847.8c-0.3,0-0.4-0.3-0.1-0.5c20.9-0.2,41.4-0.2,61.9-0.2c0,0.1,0,0.2,0,0.5
	C804.5,847.8,784,847.8,763.2,847.8z"/>
<path class="st0" d="M1.4,762.4c-0.1,0.3-0.2,0.3-0.5,0.4c-0.2-15.6-0.2-31.3-0.2-47.3c0.2,0.9,0.7,2,0.7,3.2
	C1.4,733.2,1.4,747.6,1.4,762.4z"/>
<path class="st0" d="M834.3,847.8c0.3-0.3,1-0.8,1.7-0.8c14.4,0,28.7,0,43.1,0c0.3,0,0.7,0.1,1.1,0.5
	C865.1,847.8,849.9,847.8,834.3,847.8z"/>
<path class="st0" d="M1074.6,847c-14.4,0.1-28.8,0.1-43.5,0.1c0-235.7,0-471,0-706.6c1.2-0.1,2.6-0.3,4.5-0.6
	c13.2-0.1,25.9-0.1,39-0.1c0,2,0,3.5,0,5.1c0,231.2,0,462.3,0,693.5c0,1.6,0.3,3.2,0.5,4.7c-0.1,0.3-0.2,0.5-0.4,1.2
	c-0.1,1-0.1,1.6,0,2.2C1074.7,846.7,1074.7,846.9,1074.6,847z"/>
<path class="st0" d="M879.7,781c-0.1,1.5-0.2,2.9-0.2,4.5c-14.9,0-29.6,0-44.4,0c0-149.2,0-298.2,0-447.7c1.4-0.1,2.7-0.1,4.6-0.2
	c13.7,0,26.7,0,39.9,0c0,2.1,0,3.5,0,4.8c0,144.8,0,289.5,0,434.3C879.6,778.3,879.7,779.7,879.7,781z"/>
<path class="st0" d="M723.1,847c-33.7,0.2-67.3,0.1-100.8,0.1c-5.6,0-11.3,0-17.2,0c-0.3-16.8-0.3-33.6-0.3-51c1.5,0,2.8,0,4.7,0
	c22.2,0,43.9,0,65.6,0c0-1.9,0-3.4,0-4.9c0-6.4,0.1-12.9,0.1-19.3c0-40.2,0.1-80.5-0.1-120.7c0-3.5,0.9-4.9,5-4.3
	c14.7,0,28.8,0,43.2,0c0,2,0,3.3,0,4.7c0,62.5,0,125.1,0,187.6c0,1.4,0.1,2.8,0.1,4.1C723.4,844.4,723.3,845.6,723.1,847z"/>
<path class="st0" d="M1009.4,4.9c5.8,0.3,5.6,0.3,6.3,6c0.7,6,1.9,12,2.6,18c0.3,2,1,2.9,2.9,3.5c30,9.9,51.5,37.3,54,68.7
	c0.3,4.1,0.1,8.3,0.1,12.8c0.4,4.2-1.4,4.9-5,4.9c-24.2-0.2-48.4-0.1-72.5-0.1c-11.3,0-22.6,0.2-33.8,0.2c-5.6,0-11.2,0-17.2,0
	c-1.6-8.2-1.3-16.6,0.3-25c3.4-18.9,12.3-34.7,27.1-47.1c1.9-1.6,3.7-3.3,5.9-5.2c0.7-0.3,1.1-0.3,1.4-0.4c6.3-3,12.6-5.9,18.8-9.1
	c0.9-0.5,1.2-2.3,1.7-3.5c0.1-0.2,0.2-0.3,0.5-0.7c0.2-0.2,0-0.1,0-0.1c0.8-6.9,1.7-13.7,2.3-20.6C1005.1,4.1,1007.4,5.1,1009.4,4.9
	z"/>
<path class="st0" d="M825,846.8c-20.6,0.3-41.1,0.3-62,0.4c-0.5-1.2-0.7-2.5-0.7-3.7c0-14.1,0-28.3,0-42.4c0-4.9,0-4.9,5.3-5
	c19.4,0,38.3,0,57.5,0c0,15.9,0,31.4,0,46.9C825.1,844.2,825.1,845.4,825,846.8z"/>
<path class="st0" d="M396.6,682.6c0.6,3.8-1.3,4.5-4.7,4.4c-11.1-0.2-22.2-0.1-33.6-0.1c0-13.4,0-26.5,0-40.1c1.4,0,2.7,0,4.7,0
	c10.4,0,20.2,0.1,29.9,0c2.9,0,3.7,0.9,3.6,3.7C396.5,661.2,396.6,671.9,396.6,682.6z"/>
<path class="st0" d="M450.5,682.6c-0.1,1.3-0.2,2.5-0.3,4c-12.6,0-25.2,0-38,0c0-13.1,0-26.2,0-39.8c1.3,0,2.6,0,4.6,0
	c11.5,0,22.4,0,33.7,0C450.5,659.2,450.5,670.9,450.5,682.6z"/>
<path class="st0" d="M423.7,627.3c0,1.3,0,2.5,0,4c-12.7,0-25.3,0-38,0c0-13.2,0-26.3,0-39.8c1.5,0,2.8,0,4.7,0
	c11.4,0,22.1,0,33.3,0C423.7,603.8,423.7,615.6,423.7,627.3z"/>
<path class="st0" d="M168.3,570.2c0.2,0.7,0.2,1.6,0.2,2.5c0,90,0,179.9,0,269.9c0,1.1-0.1,2.3-0.3,3.7c-0.2-1-0.3-2.3-0.3-3.5
	c0-89.5,0-179,0-268.5C167.9,572.9,168.1,571.7,168.3,570.2z"/>
<path class="st0" d="M942.4,140.4c0.6-0.1,1.1,0,1.6,0c0,0.1,0,0.3,0,0.4c-0.4,0-0.8,0.1-1.4,0.1
	C942.3,140.8,942.3,140.6,942.4,140.4z"/>
<path class="st0" d="M986.6,846.2c-0.2-0.3-0.3-1-0.2-1.7C986.6,844.9,986.6,845.4,986.6,846.2z"/>
<path class="st0" d="M1074.8,846.4c-0.2-0.4-0.2-1-0.2-1.8C1074.8,845,1074.8,845.6,1074.8,846.4z"/>
<path class="st0" d="M1002.4,27.8c0,0.1,0.2-0.1,0.2-0.1l-0.2-0.1C1002.4,27.6,1002.4,27.7,1002.4,27.8z"/>
<path class="st0" d="M942.4,791.3C942.5,791.3,942.5,791.2,942.4,791.3C942.4,791.4,942.4,791.3,942.4,791.3z"/>
<path class="st0" d="M946.3,140.6C946.3,140.7,946.4,140.6,946.3,140.6z"/>
<text transform="matrix(1 0 0 1 6.7563 970.2581)" class="st1 st2">AL-IRSCHAD JUGEND</text>
</svg>
